<svg width="151" height="140" viewBox="0 0 151 140" fill="none" xmlns="http://www.w3.org/2000/svg">
<path d="M83.144 110.906L83.2034 110.991C83.1263 111.5 83.0097 112.007 82.8545 112.508V112.508L83.9251 109.226L84.7966 106.581L86.6196 101.061L87.2149 99.0308L91.0667 87.247L92.1721 83.9282L94.0725 78.1438L94.9559 75.4588L94.9135 75.3987L101.542 55.2508L102.497 52.3222L103.222 50.2176L110.718 27.5629L111.303 25.7757L113.224 19.8778L11.6875 60.0127C12.1488 59.8283 12.6234 59.6748 13.107 59.5534C13.2433 59.5127 13.3816 59.4784 13.5213 59.451C13.9211 59.3568 14.3439 59.2664 14.798 59.1917C14.9063 59.1676 15.0158 59.15 15.1257 59.1389C15.6848 59.0531 16.2469 58.9959 16.809 58.9675L17.2453 58.9537C17.7189 58.9354 18.2155 58.9209 18.7146 58.9387C18.881 58.9446 19.0533 58.9302 19.2281 58.9482C19.8707 58.9682 20.5217 59.0001 21.1982 59.0682L21.4417 59.0974C22.0495 59.1543 22.6826 59.2471 23.3158 59.34L23.9201 59.4495C24.5532 59.5424 25.1889 59.6676 25.8331 59.8049L26.1853 59.8731C26.9381 60.0494 27.7223 60.2415 28.5006 60.4538L29.5105 60.736L30.2514 60.9529L31.4582 61.3417C31.6899 61.4115 31.9216 61.4813 32.1473 61.5714L32.6191 61.723C33.3396 61.9685 34.0542 62.2342 34.7857 62.524L35.586 62.8251C36.1147 63.0286 36.6519 63.2441 37.1831 63.4798L38.2659 63.9228C39.4998 64.465 40.7362 65.0395 41.9522 65.6425L42.2891 65.804C43.4423 66.3755 44.6065 66.9914 45.7563 67.6155L46.2841 67.9039C47.388 68.5206 48.5005 69.1493 49.6358 69.7817L50.2145 70.1423C51.2921 70.8078 52.3782 71.4853 53.4439 72.1915L53.9624 72.5528C54.9967 73.2432 55.9936 73.938 56.9847 74.6532L57.3037 74.8756C58.3269 75.6173 59.329 76.3769 60.3097 77.1542L61.226 77.8785C61.909 78.4156 62.5631 78.9694 63.2173 79.5231L64.5255 80.6305L65.8957 81.8545C66.6632 82.5402 67.436 83.2623 68.2142 84.0207L69.5037 85.274L70.6193 86.4244L72.1173 88.0309L73.1098 89.1506C73.5084 89.7157 74.031 90.2267 74.473 90.767L75.4077 91.9197L76.6036 93.6151L77.3669 94.6973C77.6213 95.058 77.8588 95.3946 78.0963 95.7313C78.6051 96.4528 79.0971 97.1502 79.465 97.9017C79.7958 98.3707 80.0255 98.8976 80.2756 99.3959C80.5258 99.8942 80.7082 100.009 80.7903 100.384C81.1778 101.192 81.5567 101.988 81.8525 102.781L81.8949 102.841C82.2271 103.715 82.5051 104.568 82.7227 105.423C83.041 106.605 83.2195 107.821 83.2554 109.052L83.2569 109.457C83.2311 109.995 83.2003 110.469 83.144 110.906Z" fill="url(#paint0_linear_402_700)"/>
<path d="M6.63785 72.1794C3.08185 58.4288 17.1797 54.7358 38.1098 63.9449C59.0398 73.154 78.8938 91.7952 82.4583 105.558C86.0228 119.32 71.9164 123.001 50.9864 113.792C30.0563 104.583 10.1934 86.0147 6.63785 72.1794Z" fill="url(#paint1_linear_402_700)"/>
<defs>
<linearGradient id="paint0_linear_402_700" x1="55.4314" y1="32.6164" x2="81.1574" y2="66.9612" gradientUnits="userSpaceOnUse">
<stop offset="0.03" stop-color="#FDDBDB"/>
<stop offset="0.15" stop-color="#FACECE"/>
<stop offset="0.51" stop-color="#F4AAAD"/>
<stop offset="0.81" stop-color="#F09598"/>
<stop offset="1" stop-color="#EE8D91"/>
</linearGradient>
<linearGradient id="paint1_linear_402_700" x1="11226.3" y1="24294.3" x2="13146.5" y2="22198.9" gradientUnits="userSpaceOnUse">
<stop stop-color="#F8C7C8"/>
<stop offset="0.42" stop-color="#DE7C83"/>
<stop offset="0.49" stop-color="#D97781"/>
<stop offset="0.78" stop-color="#C7687A"/>
<stop offset="0.99" stop-color="#C16377"/>
</linearGradient>
</defs>
</svg>
