<svg width="88" height="57" viewBox="0 0 88 57" fill="none" xmlns="http://www.w3.org/2000/svg">
<path d="M0 34.711C0 37.1035 2.46096 37.8601 5.46378 37.8601C8.27093 37.8601 10.4986 37.1597 10.4986 35.5903C10.4986 34.1844 9.05362 34.0106 7.55597 33.8777V33.4278C9.05362 33.2591 10.333 33.0291 10.333 31.838C10.333 30.381 8.27093 29.6807 5.46378 29.6807C2.46096 29.6807 0.165569 30.4373 0.165569 32.4923H2.8222C2.8222 31.5773 3.38664 31.2603 5.46378 31.2603C7.17968 31.2603 7.67638 31.5313 7.67638 32.0629C7.67638 32.5792 7.22483 32.8604 6.23142 32.8604H4.60583V34.44H6.23142C7.22483 34.44 7.84195 34.7366 7.84195 35.3653C7.84195 36.0095 7.17968 36.2804 5.46378 36.2804C3.38664 36.2804 2.65663 35.9635 2.65663 34.711H0Z" fill="#BEAEFB"/>
<path d="M16.6399 29.793H12.32V37.7474H16.6399C19.7631 37.7474 23.0218 37.1953 23.0218 33.7651C23.0218 30.3451 19.7631 29.793 16.6399 29.793ZM14.9842 36.1678V31.3726H16.6399C18.717 31.3726 20.3652 31.4851 20.3652 33.7651C20.3652 36.0553 18.717 36.1678 16.6399 36.1678H14.9842Z" fill="#BEAEFB"/>
<path d="M3.16087 47.3175V44.5212H7.74413V47.3175H10.4008V44.7768C10.4008 44.1582 9.90405 43.8208 8.9859 43.8208H7.27752V43.3709C8.68486 43.2534 10.2502 42.8955 10.2502 41.5868C10.2502 39.8027 7.82691 39.363 5.03482 39.363H0.496718V47.3175H3.16087ZM3.16087 40.9427H5.03482C6.61525 40.9427 7.59361 40.9427 7.59361 41.9447C7.59361 42.9415 6.61525 42.9415 5.03482 42.9415H3.16087V40.9427Z" fill="#BEAEFB"/>
<path d="M20.7477 47.3175V45.7379H15.0507V44.1224H19.9124V42.5428H15.0507V40.9427H20.7477V39.363H12.3865V47.3175H20.7477Z" fill="#BEAEFB"/>
<path d="M31.3405 45.7379H30.5879L27.6378 39.363H22.3998V47.3175H25.0639V40.9427H25.809L28.7667 47.3175H33.9971V39.363H31.3405V45.7379Z" fill="#BEAEFB"/>
<path d="M40.3032 39.363H35.9834V47.3175H40.3032C43.4265 47.3175 46.6852 46.7654 46.6852 43.3352C46.6852 39.9151 43.4265 39.363 40.3032 39.363ZM38.6475 45.7379V40.9427H40.3032C42.3804 40.9427 44.0285 41.0551 44.0285 43.3352C44.0285 45.6254 42.3804 45.7379 40.3032 45.7379H38.6475Z" fill="#BEAEFB"/>
<path d="M56.8654 47.3175V45.7379H51.1683V44.1224H56.03V42.5428H51.1683V40.9427H56.8654V39.363H48.5041V47.3175H56.8654Z" fill="#BEAEFB"/>
<path d="M61.1816 47.3175V44.5212H65.7648V47.3175H68.4215V44.7768C68.4215 44.1582 67.9248 43.8208 67.0066 43.8208H65.2982V43.3709C66.7056 43.2534 68.271 42.8955 68.271 41.5868C68.271 39.8027 65.8476 39.363 63.0555 39.363H58.5174V47.3175H61.1816ZM61.1816 40.9427H63.0555C64.636 40.9427 65.6143 40.9427 65.6143 41.9447C65.6143 42.9415 64.636 42.9415 63.0555 42.9415H61.1816V40.9427Z" fill="#BEAEFB"/>
<path d="M0.331127 52.9051C0.331127 55.2312 2.62652 57 6.34429 57C9.61805 57 11.778 55.7833 12.1242 53.8049H9.46753C9.20412 54.858 7.97741 55.4203 6.38192 55.4203C4.33489 55.4203 2.98776 54.5512 2.98776 52.9051C2.98776 51.2693 4.33489 50.4002 6.38192 50.4002C7.97741 50.4002 9.20412 50.9523 9.46753 52.0003H12.1242C11.778 50.0372 9.61805 48.8206 6.34429 48.8206C2.62652 48.8206 0.331127 50.5894 0.331127 52.9051Z" fill="white"/>
<path d="M13.7819 52.9051C13.7819 55.2312 16.0472 57 19.7649 57C23.4677 57 25.7254 55.2312 25.7254 52.9051C25.7254 50.5894 23.4677 48.8206 19.7649 48.8206C16.0472 48.8206 13.7819 50.5894 13.7819 52.9051ZM16.4385 52.9051C16.4385 51.3817 17.5523 50.4002 19.7649 50.4002C21.97 50.4002 23.0688 51.3817 23.0688 52.9051C23.0688 54.4388 21.97 55.4203 19.7649 55.4203C17.5523 55.4203 16.4385 54.4388 16.4385 52.9051Z" fill="white"/>
<path d="M36.4883 55.3079H35.7357L32.7856 48.9331H27.5476V56.8876H30.2118V50.5128H30.9568L33.9145 56.8876H39.145V48.9331H36.4883V55.3079Z" fill="white"/>
<path d="M50.0719 55.3079H49.3193L46.3691 48.9331H41.1311V56.8876H43.7953V50.5128H44.5404L47.498 56.8876H52.7285V48.9331H50.0719V55.3079Z" fill="white"/>
<path d="M63.076 56.8876V55.3079H57.3789V53.6925H62.2406V52.1128H57.3789V50.5128H63.076V48.9331H54.7148V56.8876H63.076Z" fill="white"/>
<path d="M64.5625 52.9051C64.5625 55.2312 66.8579 57 70.5757 57C73.8494 57 76.0093 55.7833 76.3555 53.8049H73.6989C73.4355 54.858 72.2088 55.4203 70.6133 55.4203C68.5663 55.4203 67.2191 54.5512 67.2191 52.9051C67.2191 51.2693 68.5663 50.4002 70.6133 50.4002C72.2088 50.4002 73.4355 50.9523 73.6989 52.0003H76.3555C76.0093 50.0372 73.8494 48.8206 70.5757 48.8206C66.8579 48.8206 64.5625 50.5894 64.5625 52.9051Z" fill="white"/>
<path d="M77.682 48.9331V50.5128H81.5202V56.8876H84.1769V50.5128H88V48.9331H77.682Z" fill="white"/>
<mask id="mask0_362_2492" style="mask-type:luminance" maskUnits="userSpaceOnUse" x="40" y="5" width="27" height="31">
<path d="M40.9935 5.70996H66.9295V35.3347H40.9935V5.70996Z" fill="white"/>
</mask>
<g mask="url(#mask0_362_2492)">
<path d="M41.2023 35.2479L66.7658 24.8128V5.79956L41.2023 16.2347V35.2479Z" fill="#67C8BC"/>
</g>
<mask id="mask1_362_2492" style="mask-type:luminance" maskUnits="userSpaceOnUse" x="15" y="0" width="52" height="17">
<path d="M15.6332 0H66.9295V16.507H15.6332V0Z" fill="white"/>
</mask>
<g mask="url(#mask1_362_2492)">
<path d="M51.3002 0.0499302L41.2023 4.11151L31.2174 0.0090332L15.6388 5.79979L41.2023 16.2349L66.7658 5.79979L51.3002 0.0499302Z" fill="#2A9D8F"/>
</g>
<mask id="mask2_362_2492" style="mask-type:luminance" maskUnits="userSpaceOnUse" x="15" y="5" width="27" height="31">
<path d="M15.6332 5.70996H41.4752V35.3347H15.6332V5.70996Z" fill="white"/>
</mask>
<g mask="url(#mask2_362_2492)">
<path d="M41.2023 35.2479L15.6388 24.8128V5.79956L41.2023 16.2347V35.2479Z" fill="#306E5F"/>
</g>
<path d="M51.1351 12.5907L41.6216 16.3295L32.1081 12.5907L41.6216 9.1853L51.1351 12.5907Z" fill="#2B8E82"/>
<path d="M51.1351 27.8992L41.6216 31.6386L32.1081 27.8992L41.6216 24.4944L51.1351 27.8992Z" fill="#2A9D8F"/>
<path d="M32.1081 12.7969V20.3726V28.5767L40.4324 24.9664V9.1853L32.1081 12.7969Z" fill="#2B8E82"/>
<path d="M51.1351 12.7969V28.5767L40.4324 24.9664V9.1853L51.1351 12.7969Z" fill="#306E5F"/>
</svg>
